<?xml version="1.0" encoding="utf-8"?>
<!-- Generator: Adobe Illustrator 22.0.1, SVG Export Plug-In . SVG Version: 6.00 Build 0)  -->
<svg version="1.1" id="Layer_1" xmlns="http://www.w3.org/2000/svg" xmlns:xlink="http://www.w3.org/1999/xlink" x="0px" y="0px"
	 viewBox="0 0 62.3 49.3" style="enable-background:new 0 0 62.3 49.3;" xml:space="preserve">
<style type="text/css">
	.st0{opacity:0.9;fill:#A72BFA;enable-background:new    ;}
	.st1{opacity:0.9;fill:#3827B4;enable-background:new    ;}
</style>
<g id="Group_19" transform="translate(-91 -145.247)">
	<g id="Ellipse_1_copy_2_2_" transform="translate(91 145.291)">
		<g id="Group_2" transform="translate(0 0)">
			<path id="Path_7" class="st0" d="M48.7,16.4C41.9,8.1,31.1,0,31.2,0c-5.3,4-10.3,8.5-14.8,13.4C2.9,27.7-3.3,42.6,1.7,47.6
				c5.1,5,20.1-1.5,34.5-15.4C40.8,27.7,49,16.8,48.7,16.4z"/>
		</g>
	</g>
	<g id="Ellipse_1_copy_2_" transform="translate(104.65 145.247)">
		<g id="Group_1">
			<path id="Path_6" class="st1" d="M32.3,13.4C27.8,8.5,22.8,4,17.5,0C17.5,0,6.7,8.1,0,16.4c-0.4,0.4,7.8,11.3,12.5,15.8
				c14.3,13.9,29.4,20.4,34.4,15.4C52,42.7,45.7,27.7,32.3,13.4z"/>
		</g>
	</g>
</g>
</svg>
